<?xml version="1.0" encoding="UTF-8"?><svg id="Layer_1" xmlns="http://www.w3.org/2000/svg" viewBox="0 0 1366 768"><defs><style>.cls-1{fill:#020202;}</style></defs><g><path class="cls-1" d="M240.47,457.88v-58.49c0-54.42,29.57-64.06,61.92-64.06,21.42,0,39.21,4.5,51.63,23.35,12.43-18.85,30.42-23.35,51.85-23.35,32.35,0,61.7,9.64,61.7,64.06v58.49c0,1.29-.86,2.36-2.14,2.36h-15.64c-1.29,0-2.14-1.07-2.14-2.36v-58.49c0-40.92-19.28-48.21-41.78-48.21s-41.78,7.28-41.78,48.21v58.49c0,1.29-.86,2.36-2.14,2.36h-15.64c-1.29,0-2.14-1.07-2.14-2.36v-58.49c0-40.92-19.28-48.21-41.78-48.21s-41.78,7.28-41.78,48.21v58.49c0,1.29-1.07,2.36-2.36,2.36h-15.64c-1.29,0-2.14-1.07-2.14-2.36Z"/><path class="cls-1" d="M556.92,335.33c32.35,0,66.2,9.64,66.2,64.06v58.49c0,1.29-1.07,2.14-2.36,2.14h-11.57c-1.07,0-2.14-.64-2.36-1.71l-3.86-13.71c-8.78,14.14-29.57,18.85-46.06,18.85-32.35,0-65.99-9.64-65.99-64.06s33.64-64.06,65.99-64.06Zm0,112.27c22.5,0,46.06-7.28,46.06-48.21s-23.57-48.21-46.06-48.21-46.06,7.28-46.06,48.21,23.57,48.21,46.06,48.21Z"/><path class="cls-1" d="M712.46,335.11c32.35,0,66.2,9.64,66.2,64.06v45.42c0,41.78-33.85,50.56-66.2,50.56-14.14,0-36.42-1.93-52.71-8.36-1.07-.43-1.93-1.29-1.93-2.36v-14.14c0-.86,.64-1.5,1.5-1.5,.21,0,.43,.21,.64,.21,11.57,4.71,30.42,10.5,52.49,10.5s46.06-4.71,46.06-34.92v-.21c-8.78,14.14-29.57,18.85-46.06,18.85-32.35,0-65.99-9.64-65.99-64.06s33.64-64.06,65.99-64.06Zm-46.06,64.06c0,40.92,23.57,48.42,46.06,48.42s46.06-7.5,46.06-48.42-23.57-48.21-46.06-48.21-46.06,7.28-46.06,48.21Z"/><path class="cls-1" d="M793.66,338.75h14.78c1.5,0,3,.86,3.64,2.36l37.92,96.63c1.71,4.07,5.57,6.64,10.07,6.64s8.14-2.57,9.86-6.64l37.92-96.63c.64-1.5,2.14-2.36,3.64-2.36h13.93c1.71,0,2.79,1.71,2.14,3.21l-49.71,128.98c-5.57,14.14-19.07,23.57-34.28,23.57h-32.14c-1.71,0-3-1.29-3-3v-9.86c0-1.71,1.29-2.79,3-2.79h27.85c9.21,0,16.93-6.21,20.57-14.57l1.71-4.07c-19.28,0-26.57-8.78-31.49-21.64l-37.92-97.48c-.43-1.07,.21-2.36,1.5-2.36Z"/><path class="cls-1" d="M939.77,457.88v-58.7c0-54.42,33.85-63.85,66.2-63.85s65.99,9.43,65.99,63.85v58.7c0,1.29-.86,2.14-2.14,2.14h-15.64c-1.29,0-2.14-.86-2.14-2.14v-58.7c0-40.92-23.57-48.21-46.06-48.21s-46.06,7.28-46.06,48.21v58.7c0,1.29-.86,2.14-2.14,2.14h-15.64c-1.29,0-2.36-.86-2.36-2.14Z"/><path class="cls-1" d="M1157.23,335.11c32.14,0,61.49,9.64,61.7,63.42v8.14c0,1.07-1.07,2.14-2.14,2.14h-98.55c-1.07,0-2.14,1.07-1.93,2.14,6,30.42,29.35,36.42,49.49,36.42,15.43,0,33.64-1.93,43.06-11.14,.21-.21,.64-.21,.86-.21,1.07,0,1.93,.86,1.93,1.93v12c0,1.71-.86,3.43-2.36,4.28-11.35,6.43-29.78,9-43.49,9-32.35,0-70.49-9.64-70.49-64.06s29.57-64.06,61.92-64.06Zm-39.42,57.63h80.99c-1.93-35.35-20.35-41.78-41.56-41.78s-38.35,6.21-41.35,39.64c0,1.07,.86,2.14,1.93,2.14Z"/></g><g><path class="cls-1" d="M995.39,298.05c0-.64,.19-1.17,.57-1.6,.38-.43,.95-.64,1.71-.64s1.33,.21,1.73,.64c.39,.43,.59,.96,.59,1.6s-.2,1.12-.59,1.54-.97,.62-1.73,.62-1.33-.21-1.71-.62c-.38-.41-.57-.93-.57-1.54Z"/><path class="cls-1" d="M1006.15,298.05c0-.64,.19-1.17,.57-1.6,.38-.43,.95-.64,1.71-.64s1.33,.21,1.73,.64c.39,.43,.59,.96,.59,1.6s-.2,1.12-.59,1.54-.97,.62-1.73,.62-1.33-.21-1.71-.62c-.38-.41-.57-.93-.57-1.54Z"/><path class="cls-1" d="M1016.92,298.05c0-.64,.19-1.17,.57-1.6,.38-.43,.95-.64,1.71-.64s1.33,.21,1.73,.64c.39,.43,.59,.96,.59,1.6s-.2,1.12-.59,1.54-.97,.62-1.73,.62-1.33-.21-1.71-.62c-.38-.41-.57-.93-.57-1.54Z"/><path class="cls-1" d="M1027.68,298.05c0-.64,.19-1.17,.57-1.6,.38-.43,.95-.64,1.71-.64s1.33,.21,1.73,.64c.39,.43,.59,.96,.59,1.6s-.2,1.12-.59,1.54-.97,.62-1.73,.62-1.33-.21-1.71-.62c-.38-.41-.57-.93-.57-1.54Z"/><path class="cls-1" d="M1059.04,274.04h-9.35v25.94h-3.81v-25.94h-9.33v-3.14h22.49v3.14Z"/><path class="cls-1" d="M1066.47,280.99c1.64-2.01,3.77-3.02,6.39-3.02,4.57,0,6.87,2.58,6.91,7.73v14.28h-3.7v-14.3c-.01-1.56-.37-2.71-1.07-3.46-.7-.75-1.79-1.12-3.26-1.12-1.2,0-2.25,.32-3.16,.96s-1.61,1.48-2.12,2.52v15.4h-3.7v-30.68h3.7v11.68Z"/><path class="cls-1" d="M1085.32,272.64c0-.6,.18-1.1,.55-1.52,.37-.41,.91-.62,1.63-.62s1.26,.21,1.64,.62c.37,.41,.56,.92,.56,1.52s-.19,1.1-.56,1.5c-.37,.4-.92,.6-1.64,.6s-1.26-.2-1.63-.6-.55-.9-.55-1.5Zm3.99,27.34h-3.7v-21.61h3.7v21.61Z"/><path class="cls-1" d="M1098.72,278.38l.12,2.72c1.65-2.08,3.81-3.12,6.47-3.12,4.57,0,6.87,2.58,6.91,7.73v14.28h-3.7v-14.3c-.01-1.56-.37-2.71-1.07-3.46-.7-.75-1.79-1.12-3.26-1.12-1.2,0-2.25,.32-3.16,.96s-1.61,1.48-2.12,2.52v15.4h-3.7v-21.61h3.5Z"/><path class="cls-1" d="M1123.83,289.98l-2.32,2.42v7.59h-3.69v-30.68h3.69v18.55l1.98-2.38,6.73-7.11h4.49l-8.41,9.03,9.39,12.58h-4.33l-7.53-10.01Z"/><path class="cls-1" d="M1149.23,299.98v-29.08h9.51c3.16,0,5.53,.65,7.12,1.96,1.59,1.31,2.39,3.24,2.39,5.79,0,1.36-.39,2.56-1.16,3.6s-1.82,1.85-3.16,2.43c1.57,.44,2.81,1.28,3.72,2.51,.91,1.23,1.37,2.7,1.37,4.4,0,2.61-.85,4.66-2.54,6.15-1.69,1.49-4.08,2.24-7.17,2.24h-10.09Zm3.83-16.68h5.79c1.68,0,3.02-.42,4.02-1.26,1.01-.84,1.51-1.98,1.51-3.42,0-1.6-.47-2.77-1.4-3.49-.93-.73-2.35-1.09-4.25-1.09h-5.67v9.27Zm0,3.08v10.46h6.33c1.78,0,3.19-.46,4.22-1.39,1.03-.93,1.55-2.2,1.55-3.82,0-3.5-1.9-5.25-5.71-5.25h-6.39Z"/><path class="cls-1" d="M1174.13,272.64c0-.6,.18-1.1,.55-1.52,.37-.41,.91-.62,1.63-.62s1.26,.21,1.64,.62c.37,.41,.56,.92,.56,1.52s-.19,1.1-.56,1.5c-.37,.4-.92,.6-1.64,.6s-1.26-.2-1.63-.6-.55-.9-.55-1.5Zm3.99,27.34h-3.7v-21.61h3.7v21.61Z"/><path class="cls-1" d="M1183.16,289c0-3.37,.78-6.05,2.34-8.04,1.56-1.99,3.62-2.99,6.19-2.99s4.69,.93,6.17,2.8l.18-2.4h3.38v21.09c0,2.8-.83,5-2.49,6.61-1.66,1.61-3.88,2.42-6.68,2.42-1.56,0-3.08-.33-4.57-1-1.49-.67-2.63-1.58-3.42-2.74l1.92-2.22c1.58,1.96,3.52,2.94,5.81,2.94,1.8,0,3.2-.51,4.2-1.52,1.01-1.01,1.51-2.44,1.51-4.27v-1.86c-1.48,1.7-3.5,2.56-6.05,2.56s-4.58-1.02-6.14-3.06-2.35-4.81-2.35-8.33Zm3.71,.42c0,2.44,.5,4.35,1.5,5.74,1,1.39,2.4,2.09,4.19,2.09,2.33,0,4.04-1.06,5.13-3.18v-9.87c-1.13-2.06-2.83-3.1-5.09-3.1-1.8,0-3.2,.7-4.21,2.1-1.01,1.4-1.52,3.47-1.52,6.21Z"/></g><g><path class="cls-1" d="M184.87,429.31c-4.65,0-9.29,0-13.94,0-3.68,0-5.81-2.1-6.17-5.82-.48-5-.6-10.03-1.83-14.95-2.05-8.15-5.11-15.92-8.57-23.56-2.11-4.64-4.57-9.11-6.76-13.7-2.33-4.89-3.62-10.06-3.7-15.5-.27-17.6,7.59-30.4,23.02-38.59,4.6-2.44,9.62-3.65,14.84-4,12.4-.82,23.1,3.1,31.98,11.74,6.87,6.68,10.83,14.89,11.91,24.45,.99,8.74-.67,16.99-4.8,24.74-5.03,9.44-9.48,19.12-12.64,29.36-1.62,5.26-2.7,10.61-2.89,16.14-.06,1.86-.15,3.77-.73,5.58-.37,1.16-.91,2.22-1.84,3.05-.96,.85-2.1,1.08-3.34,1.08-4.84-.02-9.68,0-14.52,0Z"/><path class="cls-1" d="M169.2,446.31c-1.88-.66-2.97-1.81-2.99-3.64-.03-1.88,1.11-3.03,2.83-3.67-.18-.34-.5-.34-.74-.46-1.55-.79-2.37-2.43-2.01-4.04,.38-1.71,1.77-2.92,3.53-2.93,4.55-.03,9.1-.02,13.65-.02,5.43,0,10.85,0,16.28,0,1.62,0,2.8,.77,3.47,2.24,.64,1.42,.33,2.73-.65,3.89-.52,.61-1.22,.96-2.16,1.21,1.99,.7,3.25,1.92,3.11,4-.12,1.8-1.27,2.89-3.1,3.42,1.55,.53,2.65,1.35,3.01,2.91,.45,1.94-.79,3.95-2.74,4.38-.5,.11-1.03,.15-1.55,.16-9.52,0-19.04,0-28.56,0-.65,0-1.3-.04-1.92-.28-1.51-.59-2.37-1.73-2.45-3.32-.07-1.48,.65-2.61,1.94-3.36,.27-.16,.57-.28,1.05-.5Z"/><path class="cls-1" d="M196.63,455.21c-5.45,7.78-17.67,8.13-23.49,.09,.9-.19,19.7-.27,23.49-.09Z"/></g></svg>