<svg width="25" height="25" viewBox="0 0 25 25" fill="none" xmlns="http://www.w3.org/2000/svg">
<path fill-rule="evenodd" clip-rule="evenodd" d="M1 3.55884C1 3.00656 1.44771 2.55884 2 2.55884H23C23.5523 2.55884 24 3.00656 24 3.55884V4.55884C24 5.11112 23.5523 5.55884 23 5.55884H2C1.44771 5.55884 1 5.11112 1 4.55884V3.55884ZM1 11.5588C1 11.0065 1.44771 10.5588 2 10.5588H23C23.5523 10.5588 24 11.0065 24 11.5588V12.5588C24 13.1111 23.5523 13.5588 23 13.5588H2C1.44771 13.5588 1 13.1111 1 12.5588V11.5588ZM2 18.5588C1.44771 18.5588 1 19.0065 1 19.5588V20.5588C1 21.1111 1.44771 21.5588 2 21.5588H23C23.5523 21.5588 24 21.1111 24 20.5588V19.5588C24 19.0065 23.5523 18.5588 23 18.5588H2Z" fill="black"/>
</svg>
